<?xml version="1.0" encoding="UTF-8" standalone="no"?>
<!-- Created with Inkscape (http://www.inkscape.org/) -->

<svg
   xmlns:dc="http://purl.org/dc/elements/1.1/"
   xmlns:cc="http://creativecommons.org/ns#"
   xmlns:rdf="http://www.w3.org/1999/02/22-rdf-syntax-ns#"
   xmlns:svg="http://www.w3.org/2000/svg"
   xmlns="http://www.w3.org/2000/svg"
   xmlns:sodipodi="http://sodipodi.sourceforge.net/DTD/sodipodi-0.dtd"
   xmlns:inkscape="http://www.inkscape.org/namespaces/inkscape"
   version="1.1"
   id="svg3822"
   width="612"
   height="792"
   viewBox="0 0 612 792"
   sodipodi:docname="podcast.svg"
   inkscape:version="0.92.2 (5c3e80d, 2017-08-06)">
  <metadata
     id="metadata3828">
    <rdf:RDF>
      <cc:Work
         rdf:about="">
        <dc:format>image/svg+xml</dc:format>
        <dc:type
           rdf:resource="http://purl.org/dc/dcmitype/StillImage" />
        <dc:title></dc:title>
      </cc:Work>
    </rdf:RDF>
  </metadata>
  <defs
     id="defs3826" />
  <sodipodi:namedview
     pagecolor="#ffffff"
     bordercolor="#666666"
     borderopacity="1"
     objecttolerance="10"
     gridtolerance="10"
     guidetolerance="10"
     inkscape:pageopacity="0"
     inkscape:pageshadow="2"
     inkscape:window-width="1159"
     inkscape:window-height="710"
     id="namedview3824"
     showgrid="false"
     inkscape:pagecheckerboard="true"
     inkscape:zoom="0.48889803"
     inkscape:cx="-79.635663"
     inkscape:cy="533.70407"
     inkscape:window-x="323"
     inkscape:window-y="612"
     inkscape:window-maximized="0"
     inkscape:current-layer="g845" />
  <g
     transform="matrix(0.46047954,0,0,0.42393895,87.81666,172.99511)"
     id="g847">
    <g
       transform="matrix(0.1,0,0,-0.1,0,511)"
       id="g845">
      <path
         inkscape:connector-curvature="0"
         d="m 4749.1556,4107.0851 c -91.5835,-9.6959 -262.7722,-38.7028 -378.2289,-63.8313 C 3433.3816,3838.2664 2611.2932,3219.5874 2175.336,2390.1034 1892.6833,1856.4251 1787.2085,1398.2132 1809.0853,802.64276 1832.9586,176.20703 2008.14,-353.5929 2364.492,-873.7778 c 254.7867,-371.1912 869.9181,-922.3222 989.2844,-885.5585 49.7429,15.4326 89.5871,96.6357 67.7102,135.3385 -9.9819,13.4935 -73.6161,65.7705 -145.3191,117.9668 -633.0155,448.5968 -1041.1068,1057.6607 -1220.1978,1825.25251 -59.7247,253.3053 -63.7174,928.13969 -5.9891,1179.50579 274.6672,1235.4996 1208.3028,2136.5716 2466.3484,2382.1202 314.5114,61.8922 883.8095,61.8922 1182.4331,0 631.0192,-131.4602 1150.5744,-402.2181 1588.4448,-825.6056 435.9572,-423.4683 720.6063,-941.6331 857.9399,-1556.5146 29.8623,-129.521 37.8478,-247.4877 37.8478,-570.36109 0,-436.96174 -23.8732,-599.368 -141.3263,-953.268202 C 7970.0485,-243.3829 7776.8998,-612.7158 7633.5771,-809.9465 c -161.2069,-218.4808 -455.8378,-510.4889 -674.773,-669.0168 -173.1851,-123.7843 -199.0547,-146.9737 -199.0547,-187.5348 0,-40.5612 61.7211,-83.1424 119.4495,-83.1424 133.424,0 666.8706,465.9687 897.784,783.1053 320.5006,440.8401 519.5553,920.383008 597.1641,1440.48706 37.8479,255.24448 27.866,723.15224 -19.8805,993.82934 -240.8953,1341.9121 -1337.6509,2393.7553 -2727.1242,2614.1754 -225.0906,36.6828 -664.9574,48.3179 -877.9867,25.1285 z"
         id="path837"
         style="fill:#ffffff;stroke-width:0.81981945" />
      <path
         inkscape:connector-curvature="0"
         d="M 4647.5903,2910.2075 C 3877.2411,2753.5379 3258.2002,2171.5417 3055.1527,1415.5042 c -53.7356,-199.1699 -71.7029,-568.50272 -39.8442,-786.98359 61.7211,-398.33975 330.3992,-947.45071 467.816,-947.45071 105.4749,0 119.4495,98.5749 31.8587,224.298404 C 3184.5841,369.39777 3108.8884,1005.5294 3315.9285,1562.397 c 209.0366,556.8677 716.6136,993.8294 1333.6582,1146.6206 216.9388,54.1354 684.7548,48.3179 901.7768,-7.7567 197.0583,-52.1963 459.8305,-172.1022 619.0409,-282.3122 270.6745,-187.5348 533.4467,-512.4281 654.8925,-808.2338 107.4712,-259.1228 123.359,-349.941 121.4458,-692.20618 0,-290.06891 -5.9891,-334.50843 -53.7356,-489.15798 C 6837.2751,253.37021 6763.659,96.78148 6648.1191,-88.814196 6572.4234,-210.6593 6566.5175,-245.4029 6612.2676,-287.984 c 65.7138,-63.8314 123.4422,-38.7028 209.0365,90.899 529.5371,794.74034 445.8559,1802.0632 -209.0365,2500.0869 -288.6418,309.3799 -710.6244,535.6175 -1152.4876,616.8207 -214.9424,38.7027 -595.1677,34.8244 -812.1897,-9.6151 z"
         id="path839"
         style="fill:#ffffff;stroke-width:0.81981945" />
      <path
         inkscape:connector-curvature="0"
         d="M 4888.4856,1622.4308 C 4743.1665,1583.728 4637.6916,1521.9167 4528.224,1407.8283 4243.575,1112.0226 4249.5641,678.85848 4544.195,388.87037 4948.2103,-9.4693919 5634.9615,156.81524 5806.1502,692.35193 5939.491,1106.1243 5672.8093,1541.2277 5230.863,1632.0459 c -135.3373,27.1485 -207.0402,25.2093 -342.3774,-9.6151 z m 423.979,-226.2376 c 177.1778,-71.588 332.3955,-297.7448 332.3955,-485.3604 0,-189.47398 -147.3154,-409.89403 -332.3955,-496.9147 -201.0511,-94.77739 -483.7038,-40.64197 -635.0119,121.8451 -107.4713,116.02756 -147.2323,214.60251 -147.2323,373.21122 0,206.92658 91.5835,363.51528 270.7576,465.96858 153.2214,87.0207 332.3124,94.7774 511.4866,21.2502 z"
         id="path841"
         style="fill:#ffffff;stroke-width:0.81981945" />
      <path
         inkscape:connector-curvature="0"
         d="m 4468.4993,-372.9847 c -123.4422,-61.8922 -224.9243,-179.7781 -258.7794,-299.684 -29.8624,-106.3317 -1.9964,-357.6978 171.1887,-1467.5548 71.7029,-464.0294 147.3154,-982.1943 167.1959,-1152.3573 57.7284,-485.2796 81.6016,-506.6106 531.4503,-506.6106 260.7758,0 304.5295,3.8784 362.2579,38.7028 89.5871,54.1354 137.3336,139.2169 153.2214,278.4338 19.8805,183.6565 97.5725,719.2739 228.917,1597.1566 137.5,924.0997 159.3769,1156.0741 115.5399,1258.6082 -45.7501,104.3925 -153.2214,212.6633 -264.7685,260.9812 -95.493,44.4395 -117.4531,46.3787 -599.1605,46.3787 H 4573.9742 Z M 5607.0955,-556.722 c 35.8514,-23.1893 87.5907,-73.4464 113.4603,-110.21 43.7538,-61.8921 47.7465,-79.264 35.8515,-232.0551 -15.8878,-204.9874 -83.598,-676.7736 -199.0547,-1401.8651 -49.7429,-307.4407 -109.4676,-717.3347 -133.3409,-908.7479 -51.7392,-435.0225 -35.8514,-415.7116 -344.3737,-415.7116 -149.3118,0 -234.9062,7.7568 -256.7831,25.1286 -27.866,19.311 -45.7501,102.4533 -83.598,394.4614 -25.8696,203.0482 -79.6052,568.5027 -117.453,810.1729 -135.3373,850.7342 -211.033,1394.1084 -215.0257,1527.5077 -5.9891,156.5888 33.8551,241.6703 143.3227,311.3191 63.7175,42.5004 81.6016,44.5204 527.5407,44.5204 447.8523,0 463.74,-1.9392 529.4539,-44.5204 z"
         id="path843"
         style="fill:#ffffff;stroke-width:0.81981945" />
    </g>
  </g>
</svg>
