<?xml version="1.0" encoding="UTF-8" standalone="no"?>
<!-- Created with Inkscape (http://www.inkscape.org/) -->

<svg
   xmlns:dc="http://purl.org/dc/elements/1.1/"
   xmlns:cc="http://creativecommons.org/ns#"
   xmlns:rdf="http://www.w3.org/1999/02/22-rdf-syntax-ns#"
   xmlns:svg="http://www.w3.org/2000/svg"
   xmlns="http://www.w3.org/2000/svg"
   xmlns:sodipodi="http://sodipodi.sourceforge.net/DTD/sodipodi-0.dtd"
   xmlns:inkscape="http://www.inkscape.org/namespaces/inkscape"
   version="1.1"
   id="svg3822"
   width="612"
   height="792"
   viewBox="0 0 612 792"
   sodipodi:docname="bbc.svg"
   inkscape:version="0.92.2 (5c3e80d, 2017-08-06)">
  <metadata
     id="metadata3828">
    <rdf:RDF>
      <cc:Work
         rdf:about="">
        <dc:format>image/svg+xml</dc:format>
        <dc:type
           rdf:resource="http://purl.org/dc/dcmitype/StillImage" />
        <dc:title />
      </cc:Work>
    </rdf:RDF>
  </metadata>
  <defs
     id="defs3826" />
  <sodipodi:namedview
     pagecolor="#ffffff"
     bordercolor="#666666"
     borderopacity="1"
     objecttolerance="10"
     gridtolerance="10"
     guidetolerance="10"
     inkscape:pageopacity="0"
     inkscape:pageshadow="2"
     inkscape:window-width="1108"
     inkscape:window-height="710"
     id="namedview3824"
     showgrid="false"
     inkscape:pagecheckerboard="true"
     inkscape:zoom="0.3457031"
     inkscape:cx="364.04934"
     inkscape:cy="21.864621"
     inkscape:window-x="162"
     inkscape:window-y="807"
     inkscape:window-maximized="0"
     inkscape:current-layer="g80" />
  <g
     transform="translate(-47.565488,69.290942)"
     id="layer1">
    <g
       transform="matrix(3.6213703,0,0,3.6213703,212.86493,214.88335)"
       id="g80">
      <path
         inkscape:connector-curvature="0"
         d="m 60.569144,-23.124539 h 31.446438 v 49.18831 H 60.569144 Z m 19.811785,6.850351 c -0.133734,-0.0463 -0.275821,-0.0648 -0.423483,-0.129585 l -0.167164,-0.03242 c -0.239604,-0.05555 -0.473632,-0.09721 -0.729953,-0.138862 -0.167166,-0.03242 -0.331543,-0.04167 -0.501492,-0.05555 -0.303683,-0.04167 -0.582292,-0.05092 -0.869257,-0.05092 -0.128153,0 -0.208955,0.0094 -0.337116,0.0094 -0.24796,0 -0.473632,0.04167 -0.690947,0.05555 -0.133734,0.0094 -0.264675,0.03242 -0.395622,0.04167 -0.183881,0.03242 -0.36219,0.05555 -0.543284,0.120335 l -0.161594,0.01839 -0.172737,0.03242 -0.200596,0.0648 c -0.09194,0.01839 -0.183882,0.04167 -0.270249,0.08792 -0.122588,0.02777 -0.247961,0.06019 -0.370548,0.115725 -0.73831,0.259201 -1.440401,0.60172 -2.058911,1.018296 -0.337115,0.212905 -0.660298,0.453603 -0.952839,0.69892 -0.256319,0.194409 -0.487563,0.407319 -0.724379,0.634121 -0.228457,0.203656 -0.429056,0.430462 -0.649155,0.643378 -0.117022,0.14811 -0.231245,0.277716 -0.356619,0.416575 -0.08915,0.120335 -0.183881,0.226792 -0.281392,0.347147 -0.195027,0.245315 -0.395623,0.523032 -0.576718,0.782237 -0.164377,0.254574 -0.323185,0.504518 -0.484778,0.749834 -0.128152,0.21293 -0.267463,0.43046 -0.381692,0.685035 -0.136511,0.2267912 -0.259105,0.4628626 -0.378907,0.7220648 -0.133734,0.2545738 -0.250746,0.5230367 -0.370548,0.8146373 -0.103077,0.2036604 -0.181095,0.4165765 -0.267463,0.6433784 -0.06688,0.152745 -0.119798,0.2916042 -0.167165,0.4304611 -0.337114,0.9025796 -0.618508,1.8560739 -0.860896,2.8651126 -0.295325,1.2774993 -0.507066,2.6475681 -0.624081,4.07781277 -0.03065,0.47211937 -0.05572,0.93497846 -0.07523,1.41635603 -0.01671,0.3656613 -0.02228,0.7313204 -0.02228,1.0969817 0,0.2869759 0,0.5646911 0.0056,0.8331505 0.01671,0.2823456 0.03623,0.550807 0.05572,0.8516669 l 0.0056,0.20366 c 0.03065,0.3332586 0.05851,0.6526329 0.09751,0.9766353 0.01951,0.1388629 0.03065,0.2453147 0.04457,0.3841756 0.03343,0.2592031 0.07523,0.5137783 0.105867,0.7822356 0.05851,0.3332605 0.117021,0.6665232 0.192239,1.0044119 0.06967,0.3934317 0.164377,0.7914937 0.25632,1.1756691 0.153233,0.5785777 0.320398,1.1617815 0.493135,1.7172162 0.105867,0.3147462 0.220099,0.6202342 0.32597,0.9349812 0.09194,0.222178 0.189454,0.46286 0.273036,0.689664 0.122588,0.286973 0.253533,0.56469 0.381692,0.833149 0.128154,0.30086 0.27025,0.546176 0.406769,0.823894 0.164377,0.314745 0.328754,0.606349 0.498706,0.870179 l 0.08359,0.143477 c 0.139302,0.212931 0.28418,0.448977 0.445771,0.708178 0.122589,0.14811 0.239603,0.319376 0.373335,0.490633 0.114235,0.152746 0.239602,0.314748 0.373334,0.476751 0.164378,0.189778 0.325972,0.36103 0.501494,0.578576 0.197812,0.171242 0.392838,0.384176 0.590647,0.587834 0.423485,0.374916 0.8804,0.763722 1.390253,1.09698 0.181095,0.129617 0.378906,0.236067 0.587863,0.342519 0.195024,0.129594 0.401193,0.236068 0.604577,0.333262 0.367763,0.161991 0.752241,0.333258 1.15065,0.458232 0.317612,0.09719 0.663085,0.194412 1.002987,0.249951 0.345473,0.07407 0.693733,0.124982 1.061495,0.161993 0.186668,0.0185 0.367763,0.0185 0.548859,0.03242 h 0.264675 c 0.651942,0 1.264878,-0.03242 1.833237,-0.120345 l 0.117022,-0.02319 c 0.225671,-0.0185 0.4402,-0.06019 0.64637,-0.106441 0.337113,-0.07407 0.629652,-0.148112 0.924976,-0.245317 0.186667,-0.03242 0.367763,-0.106441 0.540499,-0.171241 0.27861,-0.0972 0.523784,-0.20366 0.782889,-0.310115 0.172736,-0.07868 0.348259,-0.161993 0.52378,-0.249952 0.203384,-0.08332 0.387266,-0.194413 0.579504,-0.310118 l 0.181095,-0.09719 c 0.09194,-0.05092 0.214528,-0.129594 0.353832,-0.226793 0.189454,-0.115736 0.415125,-0.254572 0.668659,-0.458233 0.167165,-0.09719 0.334329,-0.236064 0.509852,-0.356402 0.142093,-0.129616 0.309255,-0.254573 0.473632,-0.384175 0.06407,-0.0463 0.139303,-0.129615 0.203384,-0.161992 v -6.72081 c -0.04736,0.055551 -0.09474,0.1110991 -0.139301,0.1619926 l -0.275774,0.2592054 c -0.275823,0.300855 -0.5405,0.546175 -0.810749,0.79612 -0.292539,0.254575 -0.585077,0.509148 -0.866469,0.749836 -0.498708,0.36103 -0.983487,0.694292 -1.437615,0.985895 -0.888759,0.513776 -1.688363,0.837779 -2.398811,1.050695 -0.09194,0.02319 -0.169953,0.05555 -0.253533,0.07868 -0.197812,0.037 -0.387266,0.08332 -0.571147,0.115714 -0.278608,0.05555 -0.532142,0.07407 -0.76617,0.08332 -0.167165,0.01381 -0.292538,0.037 -0.431844,0.037 -0.284176,0 -0.587859,-0.02319 -0.88597,-0.0463 -0.351047,-0.05092 -0.702091,-0.115737 -1.07264,-0.212906 -0.582289,-0.171283 -1.167365,-0.421205 -1.730153,-0.754467 -0.09751,-0.05092 -0.175522,-0.106441 -0.259105,-0.17124 -0.05851,-0.02776 -0.108668,-0.06018 -0.172737,-0.115736 -0.08915,-0.0648 -0.18388,-0.115737 -0.275823,-0.194413 -0.203382,-0.161992 -0.392834,-0.33326 -0.590646,-0.513778 -0.08359,-0.09719 -0.175524,-0.18051 -0.278608,-0.268456 -0.09751,-0.106441 -0.189453,-0.20366 -0.289752,-0.324002 -0.111445,-0.115737 -0.228458,-0.277718 -0.342687,-0.41658 -0.111434,-0.138863 -0.220101,-0.310116 -0.323184,-0.439716 l -0.125378,-0.20366 -0.07244,-0.0972 -0.03623,-0.05092 -0.04458,-0.08793 C 71.13682,9.835759 70.972443,9.5256407 70.813636,9.2247809 70.732836,9.067401 70.660402,8.8822623 70.571248,8.711003 70.504368,8.5397622 70.437511,8.3870002 70.381794,8.2157429 70.306564,8.0537503 70.236924,7.9056247 70.197914,7.7343674 70.111544,7.5075751 70.036321,7.28076 69.955524,7.0354456 69.908159,6.83179 69.855221,6.6373887 69.7995,6.4337307 69.715913,6.1004701 69.643481,5.7486951 69.584974,5.4385769 69.532034,5.2025118 69.490252,4.9201726 69.448463,4.6748536 69.353742,3.9851921 69.295228,3.3556995 69.259009,2.8048947 c -0.02227,-0.2221808 -0.02227,-0.4165742 -0.03065,-0.5878335 -0.0026,-0.2684614 -0.0026,-0.495264 -0.0026,-0.6757796 V 1.1200773 c 0.0026,-0.38417565 0.03343,-0.87943533 0.06967,-1.42561452 0.03901,-0.34251461 0.07523,-0.69891968 0.136512,-1.08309538 0.03622,-0.2592009 0.07801,-0.4952617 0.114235,-0.7637209 0.05294,-0.236065 0.09751,-0.4721193 0.16995,-0.7405807 0.03065,-0.1481108 0.06965,-0.3193723 0.119799,-0.4813756 0.0613,-0.2267919 0.119798,-0.4536028 0.195025,-0.6757752 0.05294,-0.1805304 0.117022,-0.3517772 0.172738,-0.5276629 0.139303,-0.3749192 0.281393,-0.7590944 0.456916,-1.1247562 0.05572,-0.1619922 0.119798,-0.2777178 0.186667,-0.4212048 0.08359,-0.1619922 0.172736,-0.3517729 0.270249,-0.5045173 0.04458,-0.083311 0.09751,-0.1666277 0.147661,-0.268459 0.743883,-1.2312126 1.571349,-2.1337943 2.426674,-2.7910574 0.133736,-0.092553 0.275821,-0.2036556 0.403981,-0.2869743 0.147662,-0.097208 0.275822,-0.1712471 0.420696,-0.2592041 0.133738,-0.07406 0.289754,-0.12961 0.445773,-0.212905 0.133735,-0.07406 0.292539,-0.129612 0.426269,-0.185134 0.14487,-0.05092 0.295325,-0.106453 0.431841,-0.14811 0.147663,-0.04167 0.298112,-0.07406 0.459704,-0.120335 0.15602,-0.02777 0.309254,-0.05092 0.46806,-0.07407 0.292539,-0.04167 0.576717,-0.07406 0.855327,-0.07406 0.111445,0 0.197809,0 0.284178,0.02319 0.2201,0 0.415126,0.0094 0.612938,0.02778 0.136513,0.02319 0.275822,0.02319 0.412339,0.0463 0.247959,0.04167 0.504279,0.09721 0.732738,0.171247 0.203382,0.03242 0.409553,0.09721 0.599007,0.148111 0.286965,0.0972 0.551641,0.203655 0.796816,0.324003 0.14487,0.0648 0.284181,0.115726 0.420698,0.194409 0.186668,0.09258 0.359404,0.1805207 0.490349,0.2453142 0.217315,0.1388621 0.348261,0.2129068 0.348261,0.2129068 0.192239,0.120335 0.39005,0.2592022 0.579502,0.3888027 0.264677,0.1619936 0.50428,0.33326 0.738311,0.5230334 0.192239,0.1527462 0.37612,0.2916019 0.554429,0.421202 0.142093,0.1388639 0.278608,0.2453178 0.40398,0.3517776 0.220101,0.1944131 0.409555,0.3795469 0.565575,0.4952623 l 0.401195,0.3749192 v -6.5772642 c 0,0 -0.245176,-0.180522 -0.665873,-0.448978 -0.192315,-0.111101 -0.415201,-0.240682 -0.67152,-0.388806 -0.142094,-0.09721 -0.286967,-0.185133 -0.451346,-0.268461 -0.125377,-0.0648 -0.24796,-0.14811 -0.381691,-0.203655 -0.156021,-0.09721 -0.298111,-0.180521 -0.46806,-0.277717 -0.117022,-0.03242 -0.234032,-0.106454 -0.364977,-0.171246 l -0.111446,-0.04167 c -0.108667,-0.05555 -0.225671,-0.101843 -0.342687,-0.175882 -0.147662,-0.04167 -0.303681,-0.115726 -0.437414,-0.19441 -0.09751,-0.01839 -0.200597,-0.06018 -0.298109,-0.0833 -0.156022,-0.0648 -0.309256,-0.138863 -0.470846,-0.19441 -0.161595,-0.04167 -0.323186,-0.09721 -0.498708,-0.14811"
         id="path3128"
         style="fill:#ffffff;fill-opacity:1;fill-rule:evenodd;stroke:none;stroke-width:1.64934421" />
      <g
         transform="matrix(2.786076,0,0,-4.6286167,36.399934,4.0741371)"
         id="g3130"
         style="fill:#000000">
        <path
           inkscape:connector-curvature="0"
           d="m 0,0 v -2.087 h 1.354 c 0,0 0.027,0.003 0.066,0.003 0.052,0.002 0.115,0.006 0.196,0.011 0.143,0.014 0.339,0.037 0.529,0.104 0.169,0.056 0.333,0.142 0.459,0.269 0.049,0.049 0.09,0.1 0.125,0.151 0.102,0.17 0.13,0.339 0.137,0.436 10e-4,0.04 10e-4,0.065 10e-4,0.065 0,0 0.002,0.018 0,0.049 0,0.042 -0.003,0.12 -0.027,0.203 -0.023,0.101 -0.071,0.214 -0.157,0.321 -0.017,0.016 -0.037,0.037 -0.055,0.058 -0.036,0.037 -0.075,0.072 -0.119,0.109 -0.076,0.048 -0.161,0.099 -0.253,0.137 -0.12,0.053 -0.258,0.092 -0.411,0.122 -0.073,0.014 -0.157,0.028 -0.239,0.031 -0.05,0.009 -0.1,0.009 -0.154,0.013 C 1.405,0 1.354,0 1.306,0 Z"
           id="path3132"
           style="fill:#ffffff;fill-opacity:1;fill-rule:evenodd;stroke:none" />
      </g>
      <g
         transform="matrix(2.786076,0,0,-4.6286167,36.399934,-10.620332)"
         id="g3134"
         style="fill:#000000">
        <path
           inkscape:connector-curvature="0"
           d="m 0,0 v -1.976 h 0.653 0.103 c 0.049,0 0.096,0 0.146,0.007 0.137,0.01 0.324,0.03 0.508,0.079 0.039,0.012 0.077,0.023 0.11,0.035 0.147,0.055 0.285,0.127 0.4,0.236 0.085,0.086 0.142,0.181 0.179,0.272 0.048,0.116 0.065,0.222 0.069,0.301 0.007,0.072 0.007,0.109 0.007,0.109 0,0 0,0.035 -0.002,0.086 C 2.168,-0.765 2.152,-0.624 2.084,-0.492 2.05,-0.425 2.005,-0.362 1.943,-0.301 1.868,-0.232 1.781,-0.172 1.686,-0.13 1.5,-0.046 1.286,-0.017 1.111,-0.007 1.032,0 0.96,0 0.902,0 Z"
           id="path3136"
           style="fill:#ffffff;fill-opacity:1;fill-rule:evenodd;stroke:none" />
      </g>
      <path
         inkscape:connector-curvature="0"
         d="m 24.325081,-23.124539 h 31.454798 v 49.18831 H 24.325081 Z m 8.249572,6.901266 V 19.20416 h 8.032256 c 0,0 3.914438,0.161993 6.07086,-3.411292 1.758013,-2.929915 1.632641,-6.3134327 1.632641,-6.3134327 0,0 0.125378,-3.5131195 -1.501695,-6.2440036 -1.393039,-2.28653513 -3.159411,-2.90677153 -3.159411,-2.90677153 0,0 0.799605,-0.61097831 1.41254,-1.65241487 0.286967,-0.4813776 1.312243,-2.0088197 1.312243,-5.7302275 0,-3.7676968 -1.510055,-5.9385148 -1.510055,-5.9385148 0,0 -1.652142,-3.230776 -5.368767,-3.230776 z"
         id="path3138"
         style="fill:#ffffff;fill-opacity:1;fill-rule:evenodd;stroke:none;stroke-width:1.64934421" />
      <g
         transform="matrix(2.786076,0,0,-4.6286167,0.15280859,4.0741371)"
         id="g3140"
         style="fill:#000000">
        <path
           inkscape:connector-curvature="0"
           d="m 0,0 v -2.087 h 1.356 c 0,0 0.026,0.003 0.07,0.003 0.044,0.002 0.111,0.006 0.191,0.011 0.145,0.014 0.337,0.037 0.527,0.104 0.169,0.056 0.335,0.142 0.465,0.269 0.047,0.049 0.085,0.1 0.12,0.151 0.102,0.17 0.13,0.339 0.137,0.436 0.004,0.04 0.004,0.065 0.004,0.065 v 0.049 C 2.866,-0.957 2.862,-0.879 2.843,-0.796 2.816,-0.695 2.769,-0.582 2.684,-0.475 2.669,-0.459 2.65,-0.438 2.632,-0.417 2.592,-0.38 2.553,-0.345 2.511,-0.308 2.434,-0.26 2.349,-0.209 2.258,-0.171 2.136,-0.118 2,-0.079 1.848,-0.049 1.776,-0.035 1.695,-0.021 1.609,-0.018 1.561,-0.009 1.507,-0.009 1.456,-0.005 1.41,0 1.358,0 1.312,0 Z"
           id="path3142"
           style="fill:#ffffff;fill-opacity:1;fill-rule:evenodd;stroke:none" />
      </g>
      <g
         transform="matrix(2.786076,0,0,-4.6286167,0.15280859,-10.620332)"
         id="g3144"
         style="fill:#000000">
        <path
           inkscape:connector-curvature="0"
           d="m 0,0 v -1.976 h 0.656 0.102 c 0.044,0 0.102,0 0.148,0.007 0.133,0.01 0.323,0.03 0.508,0.079 0.037,0.012 0.07,0.023 0.109,0.035 0.145,0.055 0.286,0.127 0.394,0.236 0.087,0.086 0.144,0.181 0.184,0.272 0.044,0.116 0.064,0.222 0.069,0.301 0.007,0.072 0.007,0.109 0.007,0.109 v 0.086 C 2.17,-0.765 2.154,-0.624 2.086,-0.492 2.052,-0.425 2.004,-0.362 1.948,-0.301 1.871,-0.232 1.781,-0.172 1.681,-0.13 1.499,-0.046 1.289,-0.017 1.108,-0.007 1.033,0 0.963,0 0.906,0 Z"
           id="path3146"
           style="fill:#ffffff;fill-opacity:1;fill-rule:evenodd;stroke:none" />
      </g>
      <path
         inkscape:connector-curvature="0"
         d="m -11.921765,-23.124539 h 31.454797 v 49.18831 h -31.454797 z m 8.2523558,6.901266 V 19.20416 h 8.0266838 c 0,0 3.9144384,0.161993 6.0764324,-3.411292 1.755226,-2.929915 1.627068,-6.3134327 1.627068,-6.3134327 0,0 0.128154,-3.5131195 -1.498909,-6.2440036 C 9.1660425,0.94889657 7.3996711,0.32866017 7.3996711,0.32866017 c 0,0 0.8023901,-0.61097831 1.4153261,-1.65241487 0.2897524,-0.4813776 1.3178138,-2.0088197 1.3178138,-5.7302275 0,-3.7676968 -1.5100537,-5.9385148 -1.5100537,-5.9385148 0,0 -1.640997,-3.230776 -5.3631959,-3.230776 z"
         id="path3148"
         style="fill:#ffffff;fill-opacity:1;fill-rule:evenodd;stroke:none;stroke-width:1.64934421" />
      <g
         transform="matrix(2.786076,0,0,-4.6286167,-8.4118667,43.247506)"
         id="g3150"
         style="fill:#ffffff">
        <path
           inkscape:connector-curvature="0"
           d="M 0,0 H 0.813 C 2.033,0 2.527,-0.503 2.538,-1.326 2.549,-2.062 2.164,-2.757 0.813,-2.757 H 0 Z M -1.26,1.08 V -7.703 H 0 v 3.81 h 0.529 c 0.646,0 1.171,-0.202 2.333,-2.008 l 1.159,-1.802 h 1.504 c -0.603,0.835 -0.823,1.134 -1.199,1.737 -0.668,1.097 -1.159,1.908 -1.954,2.435 0.939,0.375 1.468,1.133 1.468,2.151 0,1.521 -1.109,2.46 -2.885,2.46 z"
           id="path3152"
           style="fill:#ffffff;fill-opacity:1;fill-rule:evenodd;stroke:none" />
      </g>
      <g
         transform="matrix(2.786076,0,0,-4.6286167,18.482681,46.960122)"
         id="g3154"
         style="fill:#ffffff">
        <path
           inkscape:connector-curvature="0"
           d="M 0,0 1.418,-3.177 H -1.313 Z M 0.465,1.934 H -0.428 L -4.2,-6.9 h 1.287 l 1.111,2.587 H 1.931 L 3.104,-6.9 h 1.284 z"
           id="path3156"
           style="fill:#ffffff;fill-opacity:1;fill-rule:evenodd;stroke:none" />
      </g>
      <g
         transform="matrix(2.786076,0,0,-4.6286167,37.152455,43.494215)"
         id="g3158"
         style="fill:#ffffff">
        <path
           inkscape:connector-curvature="0"
           d="m 0,0 h 1.94 c 2.464,0 3.583,-1.496 3.583,-3.26 0,-1.081 -0.656,-3.256 -3.514,-3.256 H 0 Z m -1.262,-7.649 h 3.425 c 2.898,0 4.66,2.138 4.66,4.389 0,2.075 -1.429,4.394 -4.673,4.394 h -3.412 z"
           id="path3160"
           style="fill:#ffffff;fill-opacity:1;fill-rule:evenodd;stroke:none" />
      </g>
      <path
         inkscape:connector-curvature="0"
         d="m 59.961779,78.89943 h 4.023092 V 38.246289 h -4.023092 z"
         id="path3162"
         style="fill:#ffffff;fill-opacity:1;fill-rule:nonzero;stroke:none;stroke-width:1.64934421" />
      <g
         transform="matrix(2.786076,0,0,-4.6286167,71.405027,58.583504)"
         id="g3164"
         style="fill:#ffffff">
        <path
           inkscape:connector-curvature="0"
           d="M 0,0 C 0,1.934 1.457,3.348 3.415,3.348 5.385,3.348 6.84,1.934 6.84,0 6.84,-1.915 5.385,-3.346 3.415,-3.346 1.457,-3.346 0,-1.915 0,0 m -1.3,0 c 0,-2.379 1.817,-4.505 4.689,-4.505 2.973,0 4.751,2.14 4.751,4.505 0,2.448 -1.827,4.51 -4.725,4.51 C 0.569,4.51 -1.3,2.437 -1.3,0"
           id="path3166"
           style="fill:#ffffff;fill-opacity:1;fill-rule:evenodd;stroke:none" />
      </g>
    </g>
  </g>
</svg>
